<?xml version="1.0" encoding="UTF-8"?>
<svg id="Capa_1" xmlns="http://www.w3.org/2000/svg" version="1.1" xmlns:xlink="http://www.w3.org/1999/xlink" viewBox="-1010.0 40.0 960.0 285.0">
  <!-- Generator: Adobe Illustrator 29.5.0, SVG Export Plug-In . SVG Version: 2.1.0 Build 137)  -->
  <defs>
    <style>
      .st0 {
        fill: #ffecc1;
      }

      .st1 {
        fill: #fff;
      }

      .st2 {
        fill: #6374a5;
      }

      .st3, .st4, .st5 {
        fill: none;
      }

      .st3, .st6 {
        stroke: #003671;
        stroke-width: 1.88px;
      }

      .st6, .st7 {
        fill: #003671;
      }

      .st8 {
        clip-path: url(#clippath-1);
      }

      .st9 {
        fill: #fecc44;
      }

      .st10 {
        fill: #7b88b3;
      }

      .st11 {
        fill: #1f437d;
      }

      .st5 {
        stroke: #fff;
        stroke-miterlimit: 10;
        stroke-width: 2.83px;
      }

      .st12 {
        fill: #c7cbe1;
      }

      .st13 {
        clip-path: url(#clippath);
      }
    </style>
    <clipPath id="clippath">
      <path class="st3" d="M175.6,307.09c-69.34,0-125.59-56.2-125.59-125.53s56.25-125.55,125.59-125.55v251.08Z"/>
    </clipPath>
    <clipPath id="clippath-1">
      <path class="st5" d="M-866.16,305.49c-68.46,0-123.98-55.48-123.98-123.92s55.52-123.95,123.98-123.95v247.87Z"/>
    </clipPath>
  </defs>
  <g>
    <g>
      <rect class="st10" x="295.54" y="144.05" width="680.93" height="1.88"/>
      <rect class="st10" x="257.75" y="86.03" width="718.73" height="1.88"/>
      <rect class="st10" x="225.97" y="295.05" width="525.01" height="1.88"/>
      <path class="st7" d="M342.53,102.45v17.65c0,10.35-6.03,13.91-13.2,13.91-7.75,0-13.27-4.21-13.27-13.85v-17.7h6.6v17.89c0,4.52,2.74,7.2,6.52,7.2,3.54,0,6.76-2.14,6.76-7.73v-17.36h6.6Z"/>
      <path class="st7" d="M377.82,133.61h-5.55l-14.66-19.98v19.98h-6.61v-31.16h6.06l14.12,19.06v-19.06h6.64v31.16Z"/>
      <path class="st7" d="M393.26,133.61h-6.6v-31.16h6.6v31.16Z"/>
      <path class="st7" d="M414.84,134.01h-2.88l-12.79-31.56h7.13l7.02,17.79,6.6-17.79h7.14l-12.22,31.56Z"/>
      <path class="st7" d="M452.36,133.61h-19.56v-31.16h19.29v5.71h-12.66v6.52h12.08v5.7h-12.08v7.5h12.93v5.73Z"/>
      <path class="st7" d="M466.72,108.16h3.34c2.51,0,3.78,1.19,3.78,3.51,0,2.67-1.81,3.55-3.59,3.55h-3.54v-7.06ZM460.15,102.45v31.16h6.57v-12.69h1.91c3.58,0,4.63,6.02,7.44,12.69h7.26c-3.71-9.18-4.56-13-7.26-14.59,3.05-1.64,4.6-4.2,4.6-7.63,0-4.65-3.22-8.94-8.72-8.94h-11.8Z"/>
      <path class="st7" d="M506.93,110.55c-3.84-2.02-6.12-2.79-8.38-2.79s-3.89.98-3.89,2.54c0,4.68,13.47,3.38,13.47,14.26,0,5.98-4.27,9.45-10.18,9.45-4.63,0-6.9-1.4-9.56-3v-6.73c3.84,2.98,6.18,4.02,9.06,4.02,2.52,0,3.93-1.03,3.93-2.85,0-5.13-13.5-3.26-13.5-14.43,0-5.38,3.94-8.98,10.07-8.98,2.96,0,5.63.76,8.99,2.43v6.09Z"/>
      <path class="st7" d="M522.16,133.61h-6.63v-31.16h6.63v31.16Z"/>
      <path class="st7" d="M537.56,108.16h4.18c6.25,0,8.74,4.53,8.74,9.87,0,4.58-2.01,9.86-8.64,9.86h-4.28v-19.73ZM530.93,102.45v31.16h10.94c10.61,0,15.38-6.58,15.38-15.54s-4.99-15.62-14.61-15.62h-11.71Z"/>
      <path class="st7" d="M578.72,122h-8.17l3.88-12.1,4.29,12.1ZM578.19,102.45h-7.68l-10.63,31.16h6.99l1.95-6.16h11.9l2.15,6.16h7.13l-11.8-31.16Z"/>
      <path class="st7" d="M602.29,108.16h4.25c6.2,0,8.71,4.53,8.71,9.87,0,4.58-2,9.86-8.63,9.86h-4.33v-19.73ZM595.7,102.45v31.16h10.94c10.57,0,15.38-6.58,15.38-15.54s-4.95-15.62-14.63-15.62h-11.69Z"/>
      <path class="st7" d="M650,108.16h2.33c3.54,0,4.84.96,4.84,3.58,0,2.34-1.04,3.64-4.1,3.64h-3.07v-7.22ZM643.37,102.45v31.16h6.63v-12.53h5.25c6.09,0,8.77-5.01,8.77-9.41s-2.76-9.22-8.82-9.22h-11.83Z"/>
      <path class="st7" d="M693.76,118.03c0,5.69-3.38,9.51-8.35,9.51s-8.41-3.82-8.41-9.51,3.3-9.5,8.41-9.5,8.35,3.8,8.35,9.5ZM700.53,118.03c0-7.48-5.17-16-15.12-16s-15.19,8.45-15.19,16c0,7.94,5.43,15.98,15.19,15.98s15.12-7.99,15.12-15.98Z"/>
      <path class="st7" d="M728.26,133.61h-20.25v-31.16h6.63v25.44h13.63v5.73Z"/>
      <path class="st7" d="M741.43,133.61h-6.53v-31.16h6.53v31.16Z"/>
      <path class="st7" d="M774.2,108.16h-9.56v25.45h-6.64v-25.45h-9.56v-5.71h25.76v5.71Z"/>
      <path class="st7" d="M790.07,99.43h-2.86l2.86-6.66h6.44l-6.44,6.66ZM800.55,133.61h-19.58v-31.16h19.28v5.71h-12.64v6.52h12.08v5.7h-12.08v7.5h12.94v5.73Z"/>
      <path class="st7" d="M833,130.94c-3.71,2.21-6.52,3.07-10.43,3.07-10.28,0-15.39-7.84-15.39-15.9s5.8-16.09,15.92-16.09c3.7,0,6.97.93,9.6,2.74v6.96c-2.9-1.92-5.85-3.2-9.09-3.2-5.66,0-9.64,3.92-9.64,9.45s3.92,9.57,9.48,9.57c3.44,0,5.79-1.29,9.56-3.42v6.82Z"/>
      <path class="st7" d="M867.79,133.61h-5.55l-14.62-19.98v19.98h-6.64v-31.16h6.1l14.13,19.06v-19.06h6.58v31.16Z"/>
      <path class="st7" d="M883.31,133.61h-6.62v-31.16h6.62v31.16Z"/>
      <path class="st7" d="M916.82,130.94c-3.67,2.21-6.48,3.07-10.37,3.07-10.34,0-15.48-7.84-15.48-15.9s5.8-16.09,15.93-16.09c3.74,0,7,.93,9.58,2.74v6.96c-2.84-1.92-5.84-3.2-9.06-3.2-5.69,0-9.65,3.92-9.65,9.45s3.97,9.57,9.46,9.57c3.47,0,5.78-1.29,9.6-3.42v6.82Z"/>
      <path class="st7" d="M940.84,122h-8.17l3.91-12.1,4.27,12.1ZM940.3,102.45h-7.69l-10.63,31.16h6.94l2.02-6.16h11.81l2.18,6.16h7.08l-11.71-31.16Z"/>
      <path class="st7" d="M371.06,189.27c-10.99-6.52-17.58-9.01-23.95-9.01-6.81,0-11.16,3.26-11.16,8.28,0,15.24,38.53,10.97,38.53,46.19,0,19.37-12.18,30.64-29.12,30.64-13.17,0-19.68-4.59-27.25-9.75v-21.79c10.87,9.63,17.54,13.02,25.87,13.02,7.17,0,11.07-3.39,11.07-9.31,0-16.57-38.56-10.52-38.56-46.77,0-17.47,11.41-29.04,28.87-29.04,8.49,0,16.14,2.37,25.7,7.85v19.69Z"/>
      <path class="st7" d="M433.1,226.43h-23.27l11.05-39.24,12.21,39.24ZM431.57,163.09h-21.87l-30.57,100.92h20.04l5.6-19.95h33.89l6.21,19.95h20.34l-33.64-100.92Z"/>
      <path class="st7" d="M531.7,264h-57.76v-100.92h18.88v82.4h38.89v18.52Z"/>
      <path class="st7" d="M598.32,264h-55.83v-100.92h55.02v18.48h-36.16v21.17h34.5v18.5h-34.5v24.25h36.97v18.52Z"/>
      <path class="st7" d="M663.58,189.27c-10.98-6.52-17.55-9.01-23.99-9.01-6.79,0-11.11,3.26-11.11,8.28,0,15.24,38.56,10.97,38.56,46.19,0,19.37-12.26,30.64-29.11,30.64-13.24,0-19.77-4.59-27.34-9.75v-21.79c10.93,9.63,17.56,13.02,25.9,13.02,7.21,0,11.09-3.39,11.09-9.31,0-16.57-38.54-10.52-38.54-46.77,0-17.47,11.35-29.04,28.89-29.04,8.46,0,16.11,2.37,25.65,7.85v19.69Z"/>
      <path class="st7" d="M699.3,264h-18.84v-100.92h18.84v100.92Z"/>
      <path class="st7" d="M762.63,226.43h-23.35l11.15-39.24,12.19,39.24ZM761.04,163.09h-21.82l-30.58,100.92h20l5.66-19.95h33.89l6.15,19.95h20.32l-33.62-100.92Z"/>
      <path class="st7" d="M880.19,264h-15.9l-41.81-64.67v64.67h-18.94v-100.92h17.36l40.37,61.72v-61.72h18.92v100.92Z"/>
      <path class="st7" d="M943.05,226.43h-23.34l11.1-39.24,12.23,39.24ZM941.45,163.09h-21.84l-30.52,100.92h19.98l5.63-19.95h33.91l6.19,19.95h20.34l-33.7-100.92Z"/>
      <path class="st12" d="M300.29,181.94c0,69.3-56.19,125.54-125.55,125.54s-125.53-56.24-125.53-125.54,56.24-125.57,125.53-125.57,125.55,56.23,125.55,125.57Z"/>
      <path class="st0" d="M222.6,65.96c-38.98-15.27-69.46-7.48-69.46-7.48,0,0-1.8,4.71-.46,8.79,1.35,4.1-4.04,2.77-1.34,6.85,2.69,4.1-5.43,5.49-12.22,15.03-6.8,9.55,0,0-4.1,6.85-4.09,6.82-1.4,5.45-8.12,10.93-6.85,5.46-8.24,5.46-15.02,8.18-6.79,2.72-13.26,9.5-13.26,9.5l-29.39,104.72-5.86,11.11s31.97,67.37,111.36,67.03c0,0,24.11,1.38,52.83-11.68l-4.58-212.48-.39-17.36Z"/>
      <path class="st2" d="M63.28,168.56s-2.03-4.44,3.24-2.36c0,0,2.55-1.05.41-2.45,0,0-5.9-3.18-.57-6.74,0,0,3.33-1.56,4.52-2.73l.58-4.74,1.19-.37.22-6.31s-4.34-2.58.76-4.34c0,0,2.38-3.93,13.99-4.52,0,0,2.75-2.98,4.74-2.39,0,0,2.15-2.94,3.32-3.14,0,0,2,.99,3.59,3.35,0,0,3.69,1.2,4.09,3.17,0,0,4.96.78,7.12,4.71,0,0,2.92.78,3.13-.19,0,0,.19-2.56,5.51,3.35l1,3.95,6.52.58.58,1.78,12.43.17,1.55-3.13s.17-2.78,9.48,6.07l3.32.21.8,2.34,5.33.82s1.58,1.34-5.71.97l.38,3.15s3.95,1.58,5.71,4.13l.36,7.86s-2.72-.58-4.3,3.96l-.18,4.17s-11.66,19.06-29.97,22.82c0,0-7.65,2.34-15.74,7.27,0,0-6.51,4.94-6.91,5.95l-.56,6.29s-1.38,3.73-3.37,4.12c0,0,.59,5.51-1.17,5.71,0,0,3.97,5.71-3.14,6.33,0,0-2.16,1.16-2.96,4.13,0,0-3.74,5.09-9.25-2.39,0,0,0-5.34-4.56-4.71,0,0-3.35.99-6.87-3.36,0,0-3.35-1.57-4.15,3.36,0,0-4.73,1.76-1.21-3.75,0,0-.57-2.76-1.92-3.55,0,0-1.59-3.33,2.75-1.15l2.36-.81.6-4.53s-3.14-4.54,0-4.92c0,0,1.98-.21,2.16-4.32l2.36-.43.43-4.12.95-.99-.18-4.13,2.15-.21.2-3.33-1.02-.6-.71-1.99-.25-3.95.82-1.35v-1.36l-1.4.36-1.23,8.49-1.86-5.17-.64,2.58v1.22l-.83.77-.18,1.59-2.01.99v1.38h-4.28s-4.34-2.95-5.33-4.72c0,0-5.33.4-2.54-4.77l2.54-.77s1.36-4.7-1.56-5.88c0,0-1.61-4.34.42-3.57l.78-4.3-1.6-1.81-.2-5.31s5.3-.58,5.98-2.46Z"/>
      <path class="st6" d="M175.46,56.01c69.75,0,126.27,56.2,126.27,125.53s-56.52,125.56-126.27,125.56"/>
      <g>
        <path class="st9" d="M186.13,152.38l.62-6.27.65-8.31s4.48-8.93,10.24-14.66l2.29,5.2s-5.95,10.22,9.05,5.39l12.01-5.99s18,18.05,22.79,1.82l6.05-.62s4.79-9.59,10.23-1.2v3.59s.59,1.23,5.35,1.81c0,0,4.84,12.03-4.19,23.43l.62,9.01,7.79,9.59.62,9.01s1.22,1.81,3.59-3.58c0,0,5.41-19.25,19.25-9.04l-.62,5.42s-4.23-7.21-9.6-2.98c0,0-4.21,4.17-6.6,9.6,0,0,6.6,4.18,0,10.78l1.83,2.43s4.77-5.42,2.94-12.62c0,0-2.94-9.01,5.41-4.22,0,0,4.88,4.81-2.34,21.64,0,0-4.24,5.42-4.86,7.21-.6,1.8-1.15,7.2-7.78.6,0,0,1.78,12.61-4.24,14.43v13.8s.62,14.38-23.44,14.38v-4.79l13.85-12.58s-8.4,8.38-11.42-1.23c0,0-2.44-13.81.61-15.02v-7.79s-12.03-5.4-15.04-11.39c0,0,.63,5.99,6.03,9,0,0,7.2,5.39,3.58,9.01,0,0-6.03.6-7.22,3.59,0,0-14.43,1.22-16.21-1.2,0,0,1.78-8.39,9.6-10.8,0,0-17.4,8.41-22.2-3,0,0,2.97,8.37-2.38,8.37,0,0-9.59-1.17-1.83-10.17,0,0,5.41-5.43-.57-6.61l-9.06,6.61s-5.4,3.01-3.58-5.43c0,0-4.8-10.18-2.99-14.98,0,0-.77-22.18,1.17-31.24Z"/>
        <path class="st9" d="M207.76,229.25s-2.96-13.81-9.02-2.4c0,0,2.42,4.79,4.83,6.6l.56,4.81s2.44,6.03,19.26,8.43c0,0,14.44,3.6,20.4-10.21,0,0,.66-9.05-6.59-13.23,0,0-28.85-4.2-26.43.63,0,0-1.15,2.98,9,2.98,0,0-4.79,2.4-2.97,4.2,0,0-7.81,2.4-9.03-1.8Z"/>
      </g>
      <path class="st11" d="M189.15,146.37s1.82,7.22,4.25,9c0,0,2.32,2.99-2.43,2.99,0,0,.56,9.05,4.75,9.05l13.89,1.79s5.95,5.98,1.73,10.78l-1.73,7.2s-3.05,0-5.48-7.78h-9.56s-10.83,3.62-3.6-3.61v-2.4l-4.22-.6v-10.18l1.2-4.83,1.2-11.41Z"/>
      <path class="st11" d="M217.41,170.36s4.77,10.27,10.78,10.85h4.78s6.6,2.42,9.65-.58c0,0,3.59-1.21,4.78,2.4,0,0,4.25,3.58,2.42-1.82l4.21-1.22s-5.43-3.6-9.02-8.4c0,0-24.62,3.02-27.61-1.23Z"/>
      <g>
        <g class="st13">
          <path class="st3" d="M66.03,250.74s34.78-16.62,110.24-17.73"/>
          <path class="st3" d="M66.84,113.14s33.97,16.15,109.43,17.3"/>
          <path class="st3" d="M131.51,306.61c7.22-13.9,24.07-23.67,43.73-23.67s35.1,8.99,42.78,21.99"/>
          <path class="st3" d="M219.21,61.16c-7.02,14.18-24.06,24.17-43.97,24.17s-36.51-9.77-43.73-23.68"/>
          <path class="st3" d="M139.46,297.6c-32.28-19.56-54.76-63.66-54.76-114.89s21.59-93.49,52.75-113.65"/>
          <path class="st3" d="M155.69,286.73c-15.43-24.27-25.38-62.1-25.38-104.61s9.03-76.74,23.21-101.07"/>
          <line class="st3" x1="180.36" y1="183.84" x2="45.47" y2="183.84"/>
        </g>
        <path class="st3" d="M175.6,307.09c-69.34,0-125.59-56.2-125.59-125.53s56.25-125.55,125.59-125.55v251.08Z"/>
      </g>
    </g>
    <g>
      <path class="st7" d="M756.29,305.9v-28.23h21.03v5.13h-13.95v5.95h13.06v5.07h-13.06v6.98h13.95v5.1h-21.03Z"/>
      <path class="st7" d="M807.91,304.12c-2.1,1.18-3.98,1.94-5.69,2.35-1.64.37-3.47.58-5.35.58-4.81,0-8.73-1.3-11.79-3.92-3.15-2.64-4.68-6.21-4.68-10.76,0-3.9,1.52-7.3,4.68-10.26,3.13-2.97,7.17-4.44,12.1-4.44,1.89,0,3.54.19,5.07.61,1.53.43,3.39,1.2,5.66,2.29v6.51c-2.1-1.44-3.93-2.38-5.59-2.88-1.59-.52-3.24-.78-5.05-.78-2.76,0-5.02.85-6.83,2.49-1.77,1.68-2.61,3.81-2.61,6.41,0,2.74.84,4.89,2.58,6.47,1.77,1.6,4.08,2.39,6.98,2.39,1.74,0,3.38-.29,5-.86,1.66-.59,3.51-1.49,5.52-2.68v6.47Z"/>
      <path class="st7" d="M811.99,278.95h7.06v15.77c0,2.21.55,3.97,1.68,5.32,1.17,1.31,2.88,1.97,5.07,1.97,2.49,0,4.4-.54,5.67-1.67,1.25-1.15,1.96-3,1.96-5.61v-15.77h7.02v16.35c0,3.92-1.19,7.01-3.69,9.2-2.47,2.18-6.14,3.28-10.96,3.28-4.21,0-7.53-1.04-10.08-3.17-2.5-2.15-3.73-5.23-3.73-9.31v-16.35Z"/>
      <path class="st7" d="M859.06,284.8h-.05l4.33,10.86v.04h-8.53v-.04l4.26-10.86ZM850.63,306.24l2.11-5.45h12.6l2.11,5.45h7.76l-12.02-28.58h-8.26l-12.03,28.58h7.74Z"/>
      <path class="st7" d="M886.57,282.79h4.09c3.02,0,5.45.74,7.1,2.31,1.69,1.48,2.55,3.71,2.55,6.69s-.73,5.3-2.24,6.79c-1.47,1.49-3.7,2.21-6.72,2.21h-4.78v-18ZM893.69,305.9c9.34,0,13.99-4.71,13.99-14.1s-5.77-14.13-17.27-14.13h-10.88v28.23h14.16Z"/>
      <path class="st7" d="M920.13,285.88c1.69-1.62,3.77-2.46,6.33-2.46,2.7,0,4.88.85,6.44,2.59,1.61,1.75,2.35,3.84,2.35,6.35s-.74,4.59-2.24,6.32c-1.55,1.75-3.7,2.58-6.56,2.58-2.56,0-4.71-.83-6.33-2.5-1.67-1.7-2.46-3.83-2.46-6.4s.78-4.8,2.46-6.48ZM915.21,303c3.23,2.7,6.98,4.04,11.25,4.04,4.71,0,8.65-1.45,11.69-4.32,2.99-2.93,4.51-6.39,4.51-10.36,0-4.27-1.6-7.79-4.83-10.55-3.22-2.79-6.96-4.15-11.36-4.15-4.8,0-8.74,1.5-11.69,4.53-3,2.99-4.51,6.39-4.51,10.17,0,4.38,1.63,7.97,4.95,10.64Z"/>
      <path class="st7" d="M953.86,282.79h4.08c1.07,0,1.88.27,2.5.91.64.59.95,1.4.95,2.34,0,1.04-.3,1.84-.95,2.36-.63.53-1.43.76-2.5.76h-4.08v-6.37ZM953.86,305.9v-11.57h1.49c1.41,0,2.53.28,3.28.82.7.56,1.45,1.73,2.17,3.54l3.01,7.21h7.77c-1.08-2.16-2.33-4.75-3.71-7.72-1.4-3.01-2.85-4.93-4.24-5.78,3.42-1.32,5.15-3.58,5.15-6.79,0-2.42-.95-4.39-2.98-5.79-1.94-1.41-4.65-2.14-7.93-2.14h-11.09v28.23h7.07Z"/>
    </g>
  </g>
  <g>
    <g>
      <rect class="st1" x="-747.99" y="144.52" width="672.45" height="1.88"/>
      <rect class="st1" x="-785.07" y="87.24" width="709.53" height="1.88"/>
      <rect class="st1" x="-816.29" y="293.59" width="518.13" height="1.88"/>
      <path class="st1" d="M-701.37,103.46v17.42c0,10.22-5.96,13.73-13.03,13.73-7.66,0-13.1-4.16-13.1-13.68v-17.48h6.52v17.66c0,4.47,2.7,7.11,6.43,7.11,3.49,0,6.67-2.11,6.67-7.63v-17.14h6.52Z"/>
      <path class="st1" d="M-666.53,134.23h-5.48l-14.47-19.72v19.72h-6.53v-30.76h5.99l13.94,18.81v-18.81h6.56v30.76Z"/>
      <path class="st1" d="M-651.29,134.23h-6.52v-30.76h6.52v30.76Z"/>
      <path class="st1" d="M-629.98,134.62h-2.84l-12.63-31.16h7.04l6.93,17.57,6.52-17.57h7.05l-12.07,31.16Z"/>
      <path class="st1" d="M-592.95,134.23h-19.31v-30.76h19.04v5.64h-12.5v6.44h11.92v5.63h-11.92v7.41h12.76v5.65Z"/>
      <path class="st1" d="M-578.77,109.1h3.3c2.48,0,3.73,1.18,3.73,3.47,0,2.63-1.79,3.5-3.54,3.5h-3.5v-6.97ZM-585.26,103.46v30.76h6.49v-12.52h1.88c3.54,0,4.57,5.94,7.34,12.52h7.17c-3.66-9.06-4.5-12.83-7.17-14.41,3.01-1.62,4.54-4.15,4.54-7.53,0-4.59-3.18-8.83-8.61-8.83h-11.65Z"/>
      <path class="st1" d="M-539.08,111.46c-3.79-2-6.04-2.76-8.28-2.76s-3.84.96-3.84,2.5c0,4.62,13.29,3.33,13.29,14.08,0,5.9-4.21,9.33-10.05,9.33-4.57,0-6.82-1.38-9.43-2.96v-6.65c3.8,2.94,6.1,3.96,8.94,3.96,2.49,0,3.88-1.02,3.88-2.82,0-5.06-13.33-3.22-13.33-14.24,0-5.31,3.89-8.87,9.94-8.87,2.92,0,5.56.75,8.87,2.4v6.02Z"/>
      <path class="st1" d="M-524.04,134.23h-6.55v-30.76h6.55v30.76Z"/>
      <path class="st1" d="M-508.84,109.1h4.13c6.17,0,8.62,4.48,8.62,9.74,0,4.52-1.99,9.73-8.53,9.73h-4.23v-19.47ZM-515.38,103.46v30.76h10.8c10.47,0,15.19-6.49,15.19-15.34s-4.93-15.42-14.43-15.42h-11.56Z"/>
      <path class="st1" d="M-468.2,122.77h-8.07l3.83-11.94,4.23,11.94ZM-468.72,103.46h-7.58l-10.5,30.76h6.9l1.92-6.09h11.74l2.12,6.09h7.04l-11.65-30.76Z"/>
      <path class="st1" d="M-444.94,109.1h4.19c6.12,0,8.6,4.48,8.6,9.74,0,4.52-1.97,9.73-8.52,9.73h-4.27v-19.47ZM-451.44,103.46v30.76h10.8c10.44,0,15.18-6.49,15.18-15.34s-4.89-15.42-14.45-15.42h-11.54Z"/>
      <path class="st1" d="M-397.83,109.1h2.3c3.5,0,4.78.95,4.78,3.54,0,2.31-1.03,3.59-4.05,3.59h-3.03v-7.13ZM-404.38,103.46v30.76h6.55v-12.37h5.18c6.01,0,8.66-4.95,8.66-9.29s-2.72-9.1-8.7-9.1h-11.68Z"/>
      <path class="st1" d="M-354.64,118.84c0,5.62-3.33,9.39-8.24,9.39s-8.3-3.77-8.3-9.39,3.26-9.38,8.3-9.38,8.24,3.75,8.24,9.38ZM-347.96,118.84c0-7.39-5.1-15.8-14.92-15.8s-15,8.34-15,15.8c0,7.84,5.36,15.77,15,15.77s14.92-7.88,14.92-15.77Z"/>
      <path class="st1" d="M-320.58,134.23h-20v-30.76h6.54v25.11h13.45v5.65Z"/>
      <path class="st1" d="M-307.58,134.23h-6.45v-30.76h6.45v30.76Z"/>
      <path class="st1" d="M-275.23,109.1h-9.44v25.13h-6.56v-25.13h-9.43v-5.64h25.43v5.64Z"/>
      <path class="st1" d="M-259.56,100.48h-2.83l2.83-6.58h6.35l-6.35,6.58ZM-249.21,134.23h-19.33v-30.76h19.03v5.64h-12.48v6.44h11.92v5.63h-11.92v7.41h12.78v5.65Z"/>
      <path class="st1" d="M-217.18,131.59c-3.66,2.19-6.44,3.03-10.3,3.03-10.15,0-15.2-7.74-15.2-15.69s5.73-15.88,15.72-15.88c3.65,0,6.88.92,9.47,2.71v6.87c-2.86-1.9-5.77-3.16-8.97-3.16-5.59,0-9.52,3.87-9.52,9.33s3.87,9.45,9.36,9.45c3.4,0,5.71-1.28,9.44-3.38v6.73Z"/>
      <path class="st1" d="M-182.83,134.23h-5.48l-14.43-19.72v19.72h-6.55v-30.76h6.02l13.95,18.81v-18.81h6.5v30.76Z"/>
      <path class="st1" d="M-167.52,134.23h-6.54v-30.76h6.54v30.76Z"/>
      <path class="st1" d="M-134.44,131.59c-3.62,2.19-6.4,3.03-10.24,3.03-10.21,0-15.28-7.74-15.28-15.69s5.72-15.88,15.72-15.88c3.69,0,6.91.92,9.46,2.71v6.87c-2.81-1.9-5.76-3.16-8.95-3.16-5.61,0-9.53,3.87-9.53,9.33s3.91,9.45,9.34,9.45c3.43,0,5.7-1.28,9.48-3.38v6.73Z"/>
      <path class="st1" d="M-110.72,122.77h-8.07l3.86-11.94,4.21,11.94ZM-111.25,103.46h-7.59l-10.5,30.76h6.85l2-6.09h11.66l2.15,6.09h6.99l-11.56-30.76Z"/>
      <path class="st1" d="M-673.2,189.17c-10.85-6.44-17.35-8.9-23.64-8.9-6.72,0-11.02,3.22-11.02,8.18,0,15.04,38.03,10.83,38.03,45.6,0,19.13-12.02,30.25-28.74,30.25-13,0-19.43-4.54-26.9-9.63v-21.51c10.73,9.51,17.31,12.86,25.54,12.86,7.08,0,10.93-3.35,10.93-9.19,0-16.36-38.06-10.38-38.06-46.17,0-17.24,11.26-28.67,28.5-28.67,8.38,0,15.93,2.34,25.37,7.75v19.44Z"/>
      <path class="st1" d="M-611.96,225.86h-22.97l10.91-38.74,12.06,38.74ZM-613.47,163.33h-21.59l-30.18,99.63h19.79l5.53-19.7h33.45l6.13,19.7h20.08l-33.21-99.63Z"/>
      <path class="st1" d="M-514.62,262.95h-57.02v-99.63h18.63v81.35h38.39v18.28Z"/>
      <path class="st1" d="M-448.85,262.95h-55.11v-99.63h54.32v18.24h-35.7v20.9h34.06v18.27h-34.06v23.94h36.5v18.28Z"/>
      <path class="st1" d="M-384.43,189.17c-10.84-6.44-17.33-8.9-23.68-8.9-6.71,0-10.96,3.22-10.96,8.18,0,15.04,38.07,10.83,38.07,45.6,0,19.13-12.1,30.25-28.74,30.25-13.07,0-19.52-4.54-26.99-9.63v-21.51c10.79,9.51,17.33,12.86,25.57,12.86,7.11,0,10.94-3.35,10.94-9.19,0-16.36-38.04-10.38-38.04-46.17,0-17.24,11.2-28.67,28.52-28.67,8.35,0,15.91,2.34,25.32,7.75v19.44Z"/>
      <path class="st1" d="M-349.17,262.95h-18.6v-99.63h18.6v99.63Z"/>
      <path class="st1" d="M-286.65,225.86h-23.05l11.01-38.74,12.04,38.74ZM-288.22,163.33h-21.54l-30.19,99.63h19.75l5.59-19.7h33.46l6.07,19.7h20.06l-33.19-99.63Z"/>
      <path class="st1" d="M-170.6,262.95h-15.7l-41.27-63.84v63.84h-18.7v-99.63h17.14l39.85,60.93v-60.93h18.67v99.63Z"/>
      <path class="st1" d="M-108.54,225.86h-23.04l10.96-38.74,12.08,38.74ZM-110.12,163.33h-21.56l-30.12,99.63h19.73l5.55-19.7h33.48l6.11,19.7h20.08l-33.27-99.63Z"/>
      <path class="st1" d="M-977.04,168.73s-2-4.39,3.2-2.33c0,0,2.52-1.04.41-2.42,0,0-5.82-3.13-.56-6.65,0,0,3.29-1.54,4.47-2.7l.57-4.68,1.18-.36.21-6.23s-4.29-2.55.75-4.28c0,0,2.35-3.88,13.81-4.47,0,0,2.72-2.94,4.68-2.36,0,0,2.12-2.9,3.28-3.1,0,0,1.97.98,3.55,3.3,0,0,3.64,1.18,4.04,3.13,0,0,4.9.77,7.02,4.65,0,0,2.88.77,3.09-.18,0,0,.19-2.53,5.44,3.31l.99,3.9,6.44.58.57,1.76,12.27.17,1.53-3.09s.17-2.75,9.36,6l3.28.21.79,2.31,5.26.81s1.56,1.32-5.64.95l.38,3.11s3.89,1.56,5.64,4.08l.36,7.76s-2.69-.57-4.25,3.91l-.18,4.11s-11.51,18.82-29.59,22.53c0,0-7.55,2.31-15.54,7.18,0,0-6.42,4.87-6.82,5.87l-.55,6.21s-1.36,3.68-3.33,4.07c0,0,.58,5.44-1.15,5.63,0,0,3.92,5.63-3.1,6.25,0,0-2.13,1.15-2.92,4.08,0,0-3.69,5.02-9.13-2.36,0,0,0-5.27-4.5-4.65,0,0-3.3.98-6.78-3.32,0,0-3.3-1.55-4.1,3.32,0,0-4.67,1.74-1.2-3.71,0,0-.57-2.72-1.9-3.5,0,0-1.57-3.29,2.71-1.14l2.33-.8.59-4.47s-3.1-4.48,0-4.86c0,0,1.95-.21,2.13-4.26l2.33-.42.43-4.07.94-.98-.17-4.08,2.12-.2.2-3.28-1.01-.59-.7-1.96-.24-3.9.81-1.34v-1.34l-1.39.35-1.21,8.38-1.84-5.1-.63,2.55v1.2l-.81.76-.18,1.57-1.98.97v1.36h-4.23s-4.28-2.91-5.26-4.66c0,0-5.26.4-2.51-4.71l2.51-.76s1.34-4.64-1.54-5.8c0,0-1.59-4.29.41-3.52l.77-4.25-1.58-1.79-.19-5.24s5.23-.57,5.9-2.43Z"/>
      <path class="st5" d="M-866.3,57.62c68.86,0,124.66,55.48,124.66,123.92s-55.8,123.95-124.66,123.95"/>
      <g>
        <path class="st1" d="M-769.19,180.64c-2.33,5.32-3.54,3.53-3.54,3.53l-.61-8.9-7.69-9.48-.61-8.9c8.92-11.25,4.15-23.13,4.15-23.13-4.7-.58-5.28-1.79-5.28-1.79v-3.54c-5.37-8.28-10.1,1.18-10.1,1.18l-5.97.61c-4.72,16.01-22.49-1.79-22.49-1.79l-11.86,5.9c-14.8,4.77-8.94-5.32-8.94-5.32l-2.26-5.13c-5.69,5.65-10.11,14.47-10.11,14.47l-.64,8.2-.61,6.19c-1.92,8.95-1.15,30.84-1.15,30.84-1.79,4.74,2.95,14.79,2.95,14.79-1.79,8.33,3.53,5.37,3.53,5.37l8.95-6.53c5.9,1.16.57,6.53.57,6.53-7.67,8.88,1.8,10.03,1.8,10.03,4.95,0,2.7-7.25,2.39-8.16,3.75,8.66,14.91,5.57,19.68,3.78-5.87,3.09-7.28,9.75-7.28,9.75,1.76,2.38,16.01,1.18,16.01,1.18,1.17-2.95,7.12-3.54,7.12-3.54,3.57-3.57-3.54-8.89-3.54-8.89-5.34-2.98-5.95-8.89-5.95-8.89,2.98,5.91,14.85,11.25,14.85,11.25v7.69c-3.01,1.2-.6,14.83-.6,14.83,2.45,7.79,8.47,3.6,10.55,1.85l-12.96,11.78v4.73c23.76,0,23.14-14.2,23.14-14.2v-13.62c5.94-1.79,4.18-14.25,4.18-14.25,6.54,6.51,7.09,1.18,7.67-.6.61-1.77,4.8-7.11,4.8-7.11,7.12-16.63,2.31-21.37,2.31-21.37-8.24-4.73-5.34,4.17-5.34,4.17,1.8,7.1-2.9,12.46-2.9,12.46l-1.81-2.4c6.52-6.51,0-10.64,0-10.64,2.36-5.36,6.52-9.48,6.52-9.48,5.31-4.17,9.48,2.95,9.48,2.95l.61-5.35c-13.66-10.08-19,8.93-19,8.93ZM-830.88,180.01l-1.71,7.11s-3,0-5.41-7.68h-9.44s-10.69,3.57-3.55-3.56v-2.37l-4.17-.6v-10.05l1.18-4.76,1.18-11.27s1.8,7.12,4.19,8.88c0,0,2.3,2.96-2.39,2.96,0,0,.55,8.94,4.69,8.94l13.72,1.77s5.87,5.9,1.71,10.64ZM-792.88,181.21c1.79,5.34-2.39,1.8-2.39,1.8-1.17-3.57-4.72-2.37-4.72-2.37-3,2.96-9.52.57-9.52.57h-4.72c-5.93-.57-10.65-10.7-10.65-10.7,2.95,4.19,27.26,1.21,27.26,1.21,3.54,4.74,8.9,8.29,8.9,8.29l-4.16,1.2Z"/>
        <path class="st1" d="M-834.42,228.64s-2.92-13.63-8.91-2.36c0,0,2.39,4.72,4.77,6.51l.55,4.74s2.4,5.95,19.01,8.32c0,0,14.25,3.55,20.13-10.08,0,0,.65-8.93-6.51-13.06,0,0-28.48-4.15-26.09.62,0,0-1.13,2.94,8.88,2.94,0,0-4.73,2.36-2.93,4.14,0,0-7.71,2.37-8.91-1.78Z"/>
      </g>
      <path class="st4" d="M-830.88,180.01l-1.71,7.11s-3,0-5.41-7.68h-9.44s-10.69,3.57-3.55-3.56v-2.37l-4.17-.6v-10.05l1.18-4.76,1.18-11.27s1.8,7.12,4.19,8.88c0,0,2.3,2.96-2.39,2.96,0,0,.55,8.94,4.69,8.94l13.72,1.77s5.87,5.9,1.71,10.64Z"/>
      <path class="st4" d="M-792.88,181.21c1.79,5.34-2.39,1.8-2.39,1.8-1.17-3.57-4.72-2.37-4.72-2.37-3,2.96-9.52.57-9.52.57h-4.72c-5.93-.57-10.65-10.7-10.65-10.7,2.95,4.19,27.26,1.21,27.26,1.21,3.54,4.74,8.9,8.29,8.9,8.29l-4.16,1.2Z"/>
      <g>
        <g class="st8">
          <path class="st5" d="M-974.33,249.86s34.33-16.4,108.82-17.51"/>
          <path class="st5" d="M-973.53,114.02s33.54,15.94,108.03,17.08"/>
          <path class="st5" d="M-909.68,305.02c7.13-13.73,23.77-23.37,43.17-23.37s34.65,8.87,42.23,21.7"/>
          <path class="st5" d="M-823.11,62.7c-6.93,13.99-23.75,23.86-43.4,23.86s-36.04-9.64-43.17-23.38"/>
          <path class="st5" d="M-901.84,296.12c-31.87-19.31-54.06-62.85-54.06-113.42s21.31-92.29,52.08-112.19"/>
          <path class="st5" d="M-885.82,285.39c-15.24-23.96-25.06-61.3-25.06-103.27s8.92-75.76,22.91-99.78"/>
          <line class="st5" x1="-861.46" y1="183.81" x2="-994.62" y2="183.81"/>
        </g>
        <path class="st5" d="M-866.16,305.49c-68.46,0-123.98-55.48-123.98-123.92s55.52-123.95,123.98-123.95v247.87Z"/>
      </g>
    </g>
    <g>
      <path class="st1" d="M-292.91,304.31v-27.87h20.76v5.06h-13.77v5.88h12.9v5.01h-12.9v6.89h13.77v5.04h-20.76Z"/>
      <path class="st1" d="M-241.95,302.55c-2.07,1.17-3.93,1.92-5.62,2.32-1.62.37-3.43.57-5.28.57-4.74,0-8.61-1.29-11.64-3.87-3.11-2.6-4.62-6.14-4.62-10.63,0-3.85,1.5-7.21,4.62-10.12,3.09-2.93,7.08-4.38,11.94-4.38,1.87,0,3.5.19,5,.6,1.51.42,3.34,1.18,5.59,2.26v6.43c-2.07-1.42-3.88-2.35-5.52-2.85-1.57-.52-3.2-.77-4.99-.77-2.72,0-4.95.84-6.74,2.46-1.75,1.66-2.58,3.76-2.58,6.33,0,2.71.83,4.83,2.54,6.39,1.74,1.58,4.03,2.36,6.89,2.36,1.72,0,3.34-.28,4.94-.85,1.64-.58,3.46-1.47,5.45-2.65v6.39Z"/>
      <path class="st1" d="M-237.92,277.71h6.97v15.56c0,2.18.54,3.92,1.66,5.25,1.16,1.3,2.84,1.94,5.01,1.94,2.46,0,4.34-.54,5.6-1.65,1.23-1.13,1.93-2.96,1.93-5.54v-15.56h6.93v16.14c0,3.87-1.18,6.92-3.64,9.09-2.44,2.15-6.07,3.24-10.82,3.24-4.16,0-7.43-1.02-9.95-3.13-2.47-2.12-3.68-5.17-3.68-9.19v-16.14Z"/>
      <path class="st1" d="M-191.46,283.48h-.05l4.27,10.72v.04h-8.42v-.04l4.2-10.72ZM-199.78,304.65l2.08-5.38h12.44l2.09,5.38h7.66l-11.87-28.21h-8.15l-11.88,28.21h7.64Z"/>
      <path class="st1" d="M-164.3,281.5h4.04c2.98,0,5.38.73,7,2.28,1.67,1.47,2.52,3.66,2.52,6.61s-.72,5.24-2.21,6.7c-1.45,1.47-3.65,2.18-6.64,2.18h-4.72v-17.77ZM-157.27,304.31c9.22,0,13.81-4.65,13.81-13.92s-5.7-13.95-17.05-13.95h-10.74v27.87h13.98Z"/>
      <path class="st1" d="M-131.16,284.55c1.67-1.6,3.72-2.43,6.24-2.43,2.67,0,4.82.84,6.36,2.56,1.59,1.73,2.32,3.79,2.32,6.27s-.73,4.53-2.21,6.24c-1.53,1.73-3.65,2.55-6.47,2.55-2.52,0-4.65-.82-6.24-2.47-1.65-1.68-2.42-3.78-2.42-6.32s.77-4.73,2.42-6.39ZM-136.03,301.45c3.19,2.67,6.89,3.99,11.11,3.99,4.65,0,8.54-1.43,11.54-4.27,2.96-2.89,4.45-6.31,4.45-10.23,0-4.21-1.58-7.69-4.77-10.41-3.18-2.75-6.88-4.1-11.22-4.1-4.73,0-8.63,1.48-11.54,4.47-2.96,2.95-4.45,6.31-4.45,10.04,0,4.32,1.61,7.86,4.89,10.51Z"/>
      <path class="st1" d="M-97.87,281.5h4.03c1.05,0,1.85.27,2.47.9.63.59.93,1.38.93,2.31,0,1.03-.3,1.82-.93,2.33-.62.52-1.42.75-2.47.75h-4.03v-6.29ZM-97.87,304.31v-11.43h1.47c1.39,0,2.5.27,3.24.81.69.56,1.43,1.71,2.15,3.5l2.97,7.12h7.67c-1.07-2.13-2.3-4.69-3.66-7.62-1.38-2.97-2.82-4.87-4.19-5.71,3.37-1.3,5.08-3.53,5.08-6.7,0-2.39-.94-4.33-2.94-5.72-1.91-1.39-4.59-2.11-7.83-2.11h-10.95v27.87h6.98Z"/>
    </g>
  </g>
</svg>